<svg width="1200" height="1200" viewBox="0 0 1200 1200" fill="none" xmlns="http://www.w3.org/2000/svg">
<rect width="1200" height="1200" rx="600" fill="url(#paint0_linear_25_2)"/>
<g filter="url(#filter0_d_25_2)">
<path d="M248.233 255.697C361.579 142.351 547.386 144.386 660.733 257.732C733.763 330.763 932 604 1028.5 770.5C1069.89 871.092 1028.5 942.5 999.5 971.5C965 1006 893.5 1045.29 791 1006C700.993 971.5 320.128 738.057 250.268 668.197C136.921 554.85 134.886 369.044 248.233 255.697Z" fill="white"/>
<path d="M253.096 665.369C141.275 553.548 139.313 370.274 251.061 258.526C362.809 146.777 546.083 148.74 657.904 260.561C694.16 296.816 761.803 383.13 832.569 481.403C903.215 579.508 976.743 689.209 1024.9 772.271C1065.38 870.924 1024.77 940.576 996.672 968.672C963.065 1002.28 893.183 1040.88 792.432 1002.26C747.852 985.178 630.474 918.419 515.186 846.959C457.623 811.278 400.708 774.506 353.837 742.303C306.865 710.029 270.262 682.535 253.096 665.369Z" stroke="black" stroke-width="8"/>
</g>
<circle cx="838" cy="828" r="48" fill="black"/>
<rect x="350" y="350" width="174" height="68" fill="black"/>
<rect x="391" y="502" width="174" height="64" fill="black"/>
<path d="M578.5 350L443 565.713L331.519 565.713L473.5 350L578.5 350Z" fill="black"/>
<defs>
<filter id="filter0_d_25_2" x="160.233" y="171.698" width="889.739" height="858.699" filterUnits="userSpaceOnUse" color-interpolation-filters="sRGB">
<feFlood flood-opacity="0" result="BackgroundImageFix"/>
<feColorMatrix in="SourceAlpha" type="matrix" values="0 0 0 0 0 0 0 0 0 0 0 0 0 0 0 0 0 0 127 0" result="hardAlpha"/>
<feOffset dy="4"/>
<feGaussianBlur stdDeviation="2"/>
<feComposite in2="hardAlpha" operator="out"/>
<feColorMatrix type="matrix" values="0 0 0 0 0 0 0 0 0 0 0 0 0 0 0 0 0 0 0.25 0"/>
<feBlend mode="normal" in2="BackgroundImageFix" result="effect1_dropShadow_25_2"/>
<feBlend mode="normal" in="SourceGraphic" in2="effect1_dropShadow_25_2" result="shape"/>
</filter>
<linearGradient id="paint0_linear_25_2" x1="0" y1="0" x2="1200" y2="1229.5" gradientUnits="userSpaceOnUse">
<stop stop-color="#252626"/>
<stop offset="0.9999"/>
</linearGradient>
</defs>
</svg>
